<?xml version="1.0" encoding="utf-8"?>
<!-- Generator: Adobe Illustrator 21.0.0, SVG Export Plug-In . SVG Version: 6.00 Build 0)  -->
<svg version="1.1" id="Layer_1" xmlns="http://www.w3.org/2000/svg" xmlns:xlink="http://www.w3.org/1999/xlink" x="0px" y="0px"
	 viewBox="0 0 12 57.4" style="enable-background:new 0 0 12 57.4;" xml:space="preserve">
<style type="text/css">
	.st0{fill:#9E7978;}
</style>
<g>
	<path class="st0" d="M4,15.4c0,0.3,0.1,0.5,0.2,0.6c0.1,0.2,0.3,0.3,0.7,0.4v0.1c-0.3,0.1-0.5,0.2-0.7,0.3C4.1,16.9,4,17,4,17.1
		v0.2c0,0.2,0.1,0.3,0.3,0.4c0.2,0.1,0.3,0.2,0.3,0.4c0,0.2-0.2,0.4-0.7,0.4l0.2,0.4c0.6-0.2,1-0.4,1-0.7c0-0.2-0.1-0.4-0.3-0.5
		c-0.1-0.1-0.2-0.1-0.3-0.2c-0.1-0.1-0.1-0.1-0.1-0.2v-0.1c0-0.1,0-0.1,0.1-0.2c0.1-0.1,0.1-0.1,0.2-0.2c0.1,0,0.2-0.1,0.3-0.1
		c0.1,0,0.3,0,0.4,0h1.4v-0.5H5.5c-0.3,0-0.5,0-0.7-0.1c-0.2-0.1-0.3-0.2-0.3-0.4v-0.3c0-0.3,0.1-0.4,0.3-0.5
		c0.2-0.1,0.4-0.2,0.6-0.2H10c0.5,0,0.8,0.1,1.1,0.4c0.3,0.3,0.4,0.6,0.4,0.9c0,0.4-0.2,0.8-0.5,1.1c-0.3,0.3-0.7,0.4-1.1,0.4
		c-0.4,0-0.7-0.1-1-0.4l-0.4,0.2C9,17.7,9.5,18,10,18c0.6,0,1.1-0.2,1.4-0.5c0.4-0.4,0.5-0.8,0.5-1.5c0-0.6-0.2-1-0.5-1.3
		c-0.3-0.3-0.8-0.5-1.5-0.5H5.4c-0.4,0-0.8,0.1-1.1,0.3C4.1,14.7,4,15,4,15.4z"/>
	<path class="st0" d="M7.5,10.9H7.4C7.2,10.4,7,10,6.7,9.9C6.5,9.7,6.2,9.6,5.9,9.6c-0.8,0-1.4,0.6-1.9,1.9l0.5,0.1
		c0.4-1,0.9-1.4,1.5-1.4c0.3,0,0.6,0.1,0.9,0.4c0.2,0.2,0.3,0.5,0.3,0.9v0.5h0.5v-0.5c0-0.3,0.2-0.6,0.5-1S8.9,10,9.5,10H10
		c0.5,0,0.8,0.1,1.1,0.4c0.3,0.3,0.4,0.6,0.4,0.9c0,0.4-0.1,0.7-0.4,1c-0.3,0.3-0.6,0.4-1.1,0.4c-0.5,0-0.8-0.1-1.1-0.4l-0.4,0.2
		c0.4,0.5,0.9,0.7,1.5,0.7c0.6,0,1-0.2,1.4-0.5c0.4-0.4,0.6-0.8,0.6-1.4c0-0.5-0.2-1-0.6-1.3c-0.4-0.4-0.8-0.5-1.4-0.5H9.5
		C9,9.5,8.6,9.6,8.2,9.8C7.8,10,7.6,10.4,7.5,10.9z"/>
	<path class="st0" d="M5,5.9C4.6,6.5,4.2,6.8,3.8,6.8c0,0,0,0-0.1,0s0,0-0.1,0v0.5c0,0,0,0,0.1,0s0,0,0.1,0c0.4,0,0.8-0.3,1.2-0.9
		c0.4-0.7,1-1,1.7-1c0.5,0,0.9,0.1,1.1,0.4s0.3,0.6,0.3,0.9c0,0.3-0.1,0.6-0.3,0.9C7.7,7.8,7.3,8,6.9,8C6.5,8,6.2,7.9,6,7.7L5.8,8.1
		c0.3,0.2,0.7,0.4,1.1,0.4c0.6,0,1-0.2,1.4-0.5c0.3-0.4,0.5-0.8,0.5-1.3c0-0.5-0.2-0.9-0.5-1.3C7.9,5,7.4,4.9,6.7,4.9
		C6,4.9,5.4,5.2,5,5.9z"/>
	<path class="st0" d="M4.7,0.6C4.2,0.9,4,1.4,4,1.9c0,0.5,0.2,0.9,0.7,1.3v0.1H1.4C0.9,3.3,0.7,3,0.7,2.5V1.2c0-0.7-0.2-1.1-0.7-1.1
		v0.5c0.1,0,0.2,0.2,0.2,0.6v1.1c0,1,0.4,1.5,1.3,1.5h4.8C7,3.8,7.6,3.6,8,3.3c0.5-0.4,0.7-0.8,0.7-1.4c0-0.5-0.2-1-0.7-1.4
		C7.6,0.2,7,0,6.4,0S5.2,0.2,4.7,0.6z M7.7,0.9c0.3,0.3,0.5,0.6,0.5,1c0,0.4-0.2,0.7-0.5,1C7.3,3.1,6.9,3.3,6.4,3.3
		c-0.6,0-1.1-0.1-1.4-0.4s-0.5-0.6-0.5-1C4.5,1.6,4.6,1.3,5,1c0.3-0.3,0.8-0.5,1.4-0.5S7.4,0.7,7.7,0.9z"/>
	<polygon class="st0" points="2.6,30.9 4.9,28.6 4.9,57.4 5.9,57.4 5.9,28.6 8.2,30.9 8.9,30.1 5.4,26.6 1.9,30.1 	"/>
</g>
</svg>
