<?xml version="1.0" encoding="utf-8"?>
<!-- Generator: Adobe Illustrator 17.1.0, SVG Export Plug-In . SVG Version: 6.00 Build 0)  -->
<!DOCTYPE svg PUBLIC "-//W3C//DTD SVG 1.1//EN" "http://www.w3.org/Graphics/SVG/1.1/DTD/svg11.dtd">
<svg version="1.1" id="Layer_1" xmlns="http://www.w3.org/2000/svg" xmlns:xlink="http://www.w3.org/1999/xlink" x="0px" y="0px"
	 viewBox="0 0 46.2 46.6" enable-background="new 0 0 46.2 46.6" xml:space="preserve">
<g>
	<path fill-rule="evenodd" clip-rule="evenodd" fill="#FFFFFF" d="M2.3,31.7c0-0.3-0.2-0.5-0.5-0.6C1.7,31,1.4,31,1.1,31H0.2v-0.5
		h0.4c0.1,0,0.2,0,0.3,0.1l0,0c0,0-0.1,0-0.1-0.1l0,0c-0.1-0.1-0.3-0.2-0.4-0.3c-0.1-0.2-0.2-0.4-0.2-0.6v-2c0-0.2,0.1-0.4,0.2-0.5
		c0.1-0.2,0.3-0.2,0.5-0.2c0.1,0,0.2,0,0.4,0.1c0.1,0.1,0.2,0.1,0.3,0.2h0c0.1-0.1,0.1-0.2,0.2-0.2c0.1-0.1,0.2-0.1,0.4-0.1
		c0.2,0,0.4,0.1,0.5,0.2c0.2,0.2,0.2,0.3,0.2,0.5v1.7H2.3v-1.6c0-0.1,0-0.1-0.1-0.2c-0.1-0.1-0.1-0.1-0.2-0.1c-0.1,0-0.1,0-0.2,0.1
		c-0.1,0.1-0.1,0.1-0.1,0.2v1.3H1.3v-1.3c0-0.1,0-0.1-0.1-0.2c-0.1-0.1-0.1-0.1-0.2-0.1c-0.1,0-0.1,0-0.2,0.1
		c-0.1,0.1-0.1,0.1-0.1,0.2v1.8c0,0.3,0.1,0.5,0.2,0.6c0.1,0.2,0.3,0.3,0.5,0.4l0.7,0.2c0.2,0.1,0.4,0.2,0.6,0.4
		c0.1,0.2,0.2,0.4,0.2,0.6v0.6H2.3V31.7z M3.5,27.7c0-0.2,0.1-0.5,0.3-0.6c0.2-0.2,0.4-0.2,0.6-0.2c0.2,0,0.4,0.1,0.6,0.3
		c0.2,0.2,0.3,0.4,0.3,0.6v4.6H4.6v-4.6c0-0.1,0-0.1-0.1-0.2c-0.1-0.1-0.1-0.1-0.2-0.1c-0.1,0-0.1,0-0.2,0.1
		c-0.1,0.1-0.1,0.1-0.1,0.2v4.6H3.5V27.7z M6.4,29.9v1.6c0,0.1,0,0.1,0.1,0.2c0.1,0.1,0.1,0.1,0.2,0.1c0.1,0,0.1,0,0.2-0.1
		C6.9,31.6,7,31.6,7,31.5v-2.7c0-0.2,0-0.3,0-0.4c0-0.1-0.1-0.2-0.1-0.2l-0.4-0.6c-0.1-0.1-0.1-0.2-0.2-0.3c0-0.1,0-0.2,0-0.3v-0.2
		h0.6V27c0,0.1,0,0.2,0,0.2c0,0.1,0.1,0.2,0.2,0.3l0.3,0.4c0.1,0.1,0.1,0.2,0.2,0.3c0,0.1,0,0.2,0,0.4v2.8c0,0.2-0.1,0.4-0.2,0.6
		c-0.2,0.2-0.4,0.2-0.6,0.2c-0.2,0-0.4-0.1-0.6-0.2c-0.2-0.2-0.2-0.4-0.2-0.6v-1.6H6.4z"/>
	<path fill-rule="evenodd" clip-rule="evenodd" fill="#FFFFFF" d="M0.9,38.8c-0.2,0-0.4-0.1-0.6-0.2c-0.2-0.1-0.2-0.3-0.2-0.5v-4
		h0.5v4c0,0.1,0,0.1,0.1,0.2c0,0,0.1,0.1,0.2,0.1s0.1,0,0.2-0.1c0,0,0.1-0.1,0.1-0.2v-1.6h0.5V38c0,0.2-0.1,0.4-0.2,0.5
		S1.2,38.8,0.9,38.8 M2.6,36.7v1.4c0,0.1,0,0.1,0.1,0.2c0,0,0.1,0.1,0.2,0.1c0.1,0,0.1,0,0.2-0.1c0,0,0.1-0.1,0.1-0.2v-2.4
		c0-0.1,0-0.3,0-0.3c0-0.1,0-0.1-0.1-0.2l-0.4-0.5c-0.1-0.1-0.1-0.2-0.1-0.2c0-0.1,0-0.1,0-0.2v-0.2H3v0.1c0,0.1,0,0.2,0,0.2
		c0,0.1,0.1,0.1,0.2,0.3L3.4,35c0.1,0.1,0.1,0.2,0.2,0.3c0,0.1,0,0.2,0,0.3V38c0,0.2-0.1,0.4-0.2,0.5c-0.2,0.1-0.3,0.2-0.6,0.2
		c-0.2,0-0.4-0.1-0.6-0.2c-0.2-0.1-0.2-0.3-0.2-0.5v-1.3H2.6z M6,36.1c0.1,0,0.2,0.1,0.3,0.2c0.1,0.1,0.1,0.2,0.1,0.3v1.4
		c0,0.2-0.1,0.4-0.2,0.5c-0.2,0.1-0.3,0.2-0.5,0.2c-0.2,0-0.4-0.1-0.5-0.2c-0.1-0.1-0.2-0.3-0.2-0.5v-2.1h0C4.7,36,4.7,36,4.6,36
		c-0.2,0-0.3-0.1-0.5-0.2c-0.1-0.1-0.2-0.3-0.2-0.5v-0.6c0-0.2,0.1-0.3,0.2-0.5C4.3,34.1,4.4,34,4.6,34c0.2,0,0.4,0.1,0.5,0.2
		c0.1,0.1,0.2,0.3,0.2,0.5v1.4h0c0-0.1,0.1-0.2,0.1-0.3l0.3-0.4l0.5,0.2L6,36.1z M4.8,34.7c0-0.1,0-0.1-0.1-0.1c0,0-0.1-0.1-0.1-0.1
		c-0.1,0-0.1,0-0.1,0.1c0,0-0.1,0.1-0.1,0.1v0.6c0,0.1,0,0.1,0.1,0.1c0,0,0.1,0.1,0.1,0.1c0.1,0,0.1,0,0.1-0.1c0,0,0.1-0.1,0.1-0.1
		V34.7z M5.8,36.7c0-0.1,0-0.1-0.1-0.1c0,0-0.1-0.1-0.2-0.1s-0.1,0-0.2,0.1c0,0-0.1,0.1-0.1,0.2v1.4c0,0.1,0,0.1,0.1,0.2
		c0,0,0.1,0.1,0.2,0.1c0.1,0,0.1,0,0.2-0.1c0,0,0.1-0.1,0.1-0.2V36.7z M6.7,34.7c0-0.2,0.1-0.3,0.2-0.5C7.1,34.1,7.2,34,7.4,34
		c0.1,0,0.2,0,0.3,0.1c0.1,0,0.2,0.1,0.2,0.2h0c0.1-0.1,0.1-0.1,0.2-0.2C8.3,34,8.4,34,8.5,34c0.2,0,0.4,0.1,0.5,0.2
		c0.1,0.1,0.2,0.3,0.2,0.5v4H8.7v-4c0-0.1,0-0.1-0.1-0.2c0,0-0.1-0.1-0.2-0.1s-0.1,0-0.2,0.1c0,0-0.1,0.1-0.1,0.2v1.9H7.7v-1.9
		c0-0.1,0-0.1-0.1-0.2c0,0-0.1-0.1-0.2-0.1c-0.1,0-0.1,0-0.2,0.1c0,0-0.1,0.1-0.1,0.2v4H6.7V34.7z M9.7,36.8c0-0.2,0.1-0.4,0.2-0.5
		c0.1-0.1,0.3-0.3,0.5-0.3c0,0,0.1,0,0.1,0c0.1,0,0.1,0,0.1,0c0,0,0.1,0,0.1-0.1c0,0,0-0.1,0-0.1v-1c0-0.1,0-0.1-0.1-0.2
		c0,0-0.1-0.1-0.2-0.1c-0.1,0-0.1,0-0.2,0.1c0,0-0.1,0.1-0.1,0.2v0.5H9.7v-0.5c0-0.2,0.1-0.4,0.2-0.5c0.1-0.1,0.3-0.2,0.5-0.2
		c0.2,0,0.4,0.1,0.5,0.2c0.1,0.1,0.2,0.3,0.2,0.5v1.1c0,0,0,0.1,0,0.1c0,0,0,0.1,0.1,0.1c0.1,0.1,0.1,0.2,0.2,0.3
		c0,0.1,0.1,0.2,0.1,0.4v1.2c0,0.2,0,0.3-0.1,0.4c-0.1,0.1-0.2,0.2-0.3,0.3c-0.1,0.1-0.3,0.1-0.5,0.1c-0.2,0-0.3,0-0.5-0.1
		c-0.1-0.1-0.3-0.2-0.3-0.3c-0.1-0.1-0.1-0.3-0.1-0.4V36.8z M10.2,37.9c0,0.1,0,0.2,0.1,0.3c0.1,0.1,0.2,0.1,0.3,0.1
		c0.1,0,0.2,0,0.3-0.1c0.1-0.1,0.1-0.2,0.1-0.3v-1.2c0-0.1,0-0.2-0.1-0.3c-0.1-0.1-0.2-0.1-0.3-0.1c-0.1,0-0.2,0-0.3,0.1
		c-0.1,0.1-0.1,0.2-0.1,0.3V37.9z M12.4,36.7v1.4c0,0.1,0,0.1,0.1,0.2c0,0,0.1,0.1,0.2,0.1c0.1,0,0.1,0,0.2-0.1c0,0,0.1-0.1,0.1-0.2
		v-2.4c0-0.1,0-0.3,0-0.3c0-0.1,0-0.1-0.1-0.2l-0.4-0.5c-0.1-0.1-0.1-0.2-0.1-0.2c0-0.1,0-0.1,0-0.2v-0.2h0.5v0.1c0,0.1,0,0.2,0,0.2
		c0,0.1,0.1,0.1,0.2,0.3l0.3,0.4c0.1,0.1,0.1,0.2,0.2,0.3c0,0.1,0,0.2,0,0.3V38c0,0.2-0.1,0.4-0.2,0.5c-0.2,0.1-0.3,0.2-0.6,0.2
		c-0.2,0-0.4-0.1-0.6-0.2c-0.2-0.1-0.2-0.3-0.2-0.5v-1.3H12.4z M15.8,38.3c0-0.3-0.1-0.4-0.4-0.5c-0.2-0.1-0.4-0.1-0.7-0.1h-0.8
		v-0.5h0.3c0.1,0,0.2,0,0.2,0.1l0,0c0,0-0.1,0-0.1-0.1l0,0c-0.1,0-0.2-0.1-0.3-0.3c-0.1-0.1-0.2-0.3-0.2-0.5v-1.7
		c0-0.2,0.1-0.3,0.2-0.5c0.1-0.1,0.3-0.2,0.5-0.2c0.1,0,0.2,0,0.3,0.1c0.1,0,0.2,0.1,0.2,0.2h0c0.1-0.1,0.1-0.1,0.2-0.2
		c0.1-0.1,0.2-0.1,0.3-0.1c0.2,0,0.4,0.1,0.5,0.2c0.1,0.1,0.2,0.3,0.2,0.5v1.2c0,0.2-0.1,0.4-0.2,0.5c-0.1,0.1-0.3,0.2-0.5,0.2
		c-0.2,0-0.4-0.1-0.5-0.2c-0.1-0.1-0.2-0.3-0.2-0.5v-1.2c0-0.1,0-0.1-0.1-0.2c0,0-0.1-0.1-0.2-0.1c-0.1,0-0.1,0-0.2,0.1
		c0,0-0.1,0.1-0.1,0.2v1.6c0,0.2,0.1,0.4,0.2,0.5c0.1,0.1,0.3,0.2,0.5,0.3l0.6,0.2c0.2,0.1,0.4,0.2,0.5,0.3c0.1,0.1,0.2,0.3,0.2,0.5
		v0.5h-0.5V38.3z M15.6,36.2c0.1,0,0.1,0,0.2-0.1c0,0,0.1-0.1,0.1-0.2v-1.2c0-0.1,0-0.1-0.1-0.2c0,0-0.1-0.1-0.2-0.1
		c-0.1,0-0.1,0-0.2,0.1c0,0-0.1,0.1-0.1,0.2v1.2c0,0.1,0,0.1,0.1,0.2C15.5,36.1,15.6,36.2,15.6,36.2 M16.8,34.7
		c0-0.2,0.1-0.3,0.2-0.5c0.1-0.1,0.3-0.2,0.5-0.2c0.1,0,0.2,0,0.3,0.1c0.1,0,0.2,0.1,0.2,0.2h0c0.1-0.1,0.1-0.1,0.2-0.2
		c0.1-0.1,0.2-0.1,0.3-0.1c0.2,0,0.4,0.1,0.5,0.2c0.1,0.1,0.2,0.3,0.2,0.5v4h-0.5v-4c0-0.1,0-0.1-0.1-0.2c0,0-0.1-0.1-0.2-0.1
		c-0.1,0-0.1,0-0.2,0.1c0,0-0.1,0.1-0.1,0.2v1.9h-0.5v-1.9c0-0.1,0-0.1-0.1-0.2c0,0-0.1-0.1-0.2-0.1c-0.1,0-0.1,0-0.2,0.1
		c0,0-0.1,0.1-0.1,0.2v4h-0.5V34.7z M20.3,36.7v1.4c0,0.1,0,0.1,0.1,0.2c0,0,0.1,0.1,0.2,0.1c0.1,0,0.1,0,0.2-0.1
		c0.1,0,0.1-0.1,0.1-0.2v-3.3c0-0.1,0-0.1-0.1-0.2c0,0-0.1-0.1-0.2-0.1c-0.1,0-0.1,0-0.2,0.1c0,0-0.1,0.1-0.1,0.2v0.5h-0.5v-0.5
		c0-0.2,0.1-0.4,0.2-0.5c0.2-0.1,0.3-0.2,0.6-0.2c0.2,0,0.4,0.1,0.6,0.2c0.2,0.1,0.2,0.3,0.2,0.5V38c0,0.2-0.1,0.4-0.2,0.5
		c-0.2,0.1-0.3,0.2-0.6,0.2c-0.2,0-0.4-0.1-0.6-0.2c-0.2-0.1-0.2-0.3-0.2-0.5v-1.3H20.3z M23,36.1c0.1,0.1,0.3,0.2,0.4,0.3
		c0.1,0.1,0.1,0.3,0.1,0.4V38c0,0.2-0.1,0.4-0.2,0.6c-0.2,0.2-0.4,0.2-0.6,0.2c-0.2,0-0.4-0.1-0.6-0.2c-0.2-0.2-0.2-0.3-0.2-0.6
		v-1.2c0-0.2,0.1-0.3,0.2-0.5c0.1-0.1,0.3-0.2,0.5-0.3V35c0-0.1,0-0.1,0-0.2c0,0-0.1-0.1-0.1-0.1l-0.2-0.1c-0.1,0-0.1-0.1-0.1-0.1
		c0,0,0-0.1,0-0.2v-0.3h0.5v0.1c0,0,0,0.1,0,0.1c0,0,0.1,0,0.1,0.1l0.2,0.1c0.1,0,0.1,0.1,0.2,0.1c0,0.1,0.1,0.1,0.1,0.2V36.1z
		 M23,36.8c0-0.1,0-0.1-0.1-0.2c-0.1-0.1-0.1-0.1-0.2-0.1c-0.1,0-0.2,0-0.2,0.1c-0.1,0.1-0.1,0.1-0.1,0.2V38c0,0.1,0,0.1,0.1,0.2
		c0.1,0.1,0.1,0.1,0.2,0.1c0.1,0,0.2,0,0.2-0.1c0.1-0.1,0.1-0.1,0.1-0.2V36.8z M23.9,34.8c0-0.2,0.1-0.4,0.2-0.5
		c0.2-0.1,0.3-0.2,0.6-0.2c0.2,0,0.4,0.1,0.6,0.2c0.2,0.1,0.2,0.3,0.2,0.5v3.9H25v-4c0-0.1,0-0.1-0.1-0.2c0,0-0.1-0.1-0.2-0.1
		s-0.1,0-0.2,0.1c-0.1,0-0.1,0.1-0.1,0.2v4h-0.5V34.8z M26.8,38.8c-0.2,0-0.4-0.1-0.6-0.2C26.1,38.4,26,38.2,26,38v-4h0.5v4
		c0,0.1,0,0.1,0.1,0.2c0,0,0.1,0.1,0.2,0.1c0.1,0,0.1,0,0.2-0.1c0,0,0.1-0.1,0.1-0.2v-1.6h0.5V38c0,0.2-0.1,0.4-0.2,0.5
		C27.2,38.7,27,38.8,26.8,38.8"/>
	<path fill-rule="evenodd" clip-rule="evenodd" fill="#FFFFFF" d="M1.8,46.5c-0.2,0-0.3,0-0.5-0.1C1.1,46.3,1,46.2,0.9,46
		c-0.1-0.1-0.1-0.3-0.1-0.5v-1.4h0.6v1.5c0,0.1,0,0.2,0.1,0.3C1.6,45.9,1.7,46,1.8,46c0.1,0,0.2,0,0.3-0.1c0.1-0.1,0.1-0.2,0.1-0.3
		v-1.7c0-0.1,0-0.1-0.1-0.2c-0.1,0-0.1-0.1-0.2-0.1H1.7v-0.5h0.1c0.1,0,0.2,0,0.3-0.1c0.1-0.1,0.1-0.2,0.1-0.3v-1
		c0-0.1,0-0.1-0.1-0.2C2,41.6,2,41.6,1.9,41.6c-0.1,0-0.1,0-0.2,0.1c-0.1,0.1-0.1,0.1-0.1,0.2v0.6c0,0.2-0.1,0.4-0.2,0.6
		c-0.2,0.2-0.4,0.2-0.6,0.2c-0.2,0-0.4-0.1-0.6-0.2C0.1,42.8,0,42.6,0,42.4v-0.6c0-0.2,0.1-0.4,0.2-0.5C0.4,41.1,0.6,41,0.8,41
		c0.1,0,0.2,0,0.4,0.1c0.1,0.1,0.2,0.1,0.2,0.2h0c0.1-0.1,0.1-0.2,0.2-0.2C1.7,41.1,1.9,41,2,41c0.2,0,0.4,0.1,0.5,0.2
		c0.1,0.1,0.2,0.3,0.2,0.5v1.1c0,0.1,0,0.3-0.1,0.3c-0.1,0.1-0.2,0.2-0.2,0.2v0c0.1,0,0.2,0.1,0.3,0.2c0.1,0.1,0.1,0.2,0.1,0.3v1.6
		c0,0.2,0,0.3-0.1,0.5c-0.1,0.1-0.2,0.3-0.4,0.4C2.1,46.5,1.9,46.5,1.8,46.5 M0.8,42.7c0.1,0,0.1,0,0.2-0.1c0.1-0.1,0.1-0.1,0.1-0.2
		v-0.6c0-0.1,0-0.1-0.1-0.2c-0.1-0.1-0.1-0.1-0.2-0.1c-0.1,0-0.1,0-0.2,0.1c-0.1,0-0.1,0.1-0.1,0.2v0.6c0,0.1,0,0.1,0.1,0.2
		C0.7,42.6,0.7,42.7,0.8,42.7 M3.4,41.8c0-0.2,0.1-0.4,0.2-0.5C3.8,41.1,4,41,4.2,41c0.1,0,0.2,0,0.4,0.1c0.1,0.1,0.2,0.1,0.2,0.2h0
		c0.1-0.1,0.1-0.2,0.3-0.2C5.2,41.1,5.3,41,5.4,41c0.2,0,0.4,0.1,0.5,0.2c0.2,0.2,0.2,0.3,0.2,0.5v4.7H5.6v-4.6c0-0.1,0-0.1-0.1-0.2
		c-0.1-0.1-0.1-0.1-0.2-0.1c-0.1,0-0.1,0-0.2,0.1c-0.1,0.1-0.1,0.1-0.1,0.2V44H4.5v-2.1c0-0.1,0-0.1-0.1-0.2
		c-0.1-0.1-0.1-0.1-0.2-0.1c-0.1,0-0.1,0-0.2,0.1C4,41.7,4,41.8,4,41.8v4.6H3.4V41.8z M7.7,46.5c-0.2,0-0.4-0.1-0.6-0.3
		c-0.2-0.2-0.3-0.4-0.3-0.6v-4c0-0.2,0.1-0.3,0.2-0.4C7.1,41.1,7.3,41,7.5,41c0.1,0,0.2,0,0.3,0c0.1,0,0.2,0,0.3,0
		c0.1,0,0.3,0,0.5-0.1h0v0.5c-0.1,0.1-0.3,0.1-0.4,0.1c-0.1,0-0.2,0-0.3,0c-0.1,0-0.2,0-0.2,0c-0.1,0-0.1,0-0.2,0.1
		c0,0-0.1,0.1-0.1,0.2v1.7h0c0.1-0.1,0.2-0.1,0.4-0.1c0.2,0,0.4,0.1,0.5,0.2c0.1,0.1,0.2,0.3,0.2,0.5v1.5c0,0.2-0.1,0.4-0.3,0.6
		C8.2,46.5,7.9,46.5,7.7,46.5 M7.7,46c0.1,0,0.1,0,0.2-0.1C8,45.9,8,45.8,8,45.7v-1.5C8,44.1,8,44,7.9,44c-0.1-0.1-0.1-0.1-0.2-0.1
		c-0.1,0-0.1,0-0.2,0.1c-0.1,0.1-0.1,0.1-0.1,0.2v1.5c0,0.1,0,0.1,0.1,0.2C7.6,46,7.6,46,7.7,46 M11.3,45.9c0-0.3-0.2-0.5-0.5-0.6
		c-0.2-0.1-0.4-0.1-0.7-0.1H9.3v-0.5h0.4c0.1,0,0.2,0,0.3,0.1l0,0c0,0-0.1,0-0.1-0.1l0,0c-0.1-0.1-0.3-0.2-0.4-0.3
		c-0.1-0.2-0.2-0.4-0.2-0.6v-2c0-0.2,0.1-0.4,0.2-0.5C9.6,41.1,9.7,41,10,41c0.1,0,0.2,0,0.4,0.1c0.1,0.1,0.2,0.1,0.3,0.2h0
		c0.1-0.1,0.2-0.2,0.3-0.2c0.1-0.1,0.2-0.1,0.3-0.1c0.2,0,0.4,0.1,0.5,0.2c0.2,0.2,0.2,0.3,0.2,0.6v1.4c0,0.2-0.1,0.4-0.2,0.6
		C11.6,44,11.4,44,11.1,44s-0.4-0.1-0.6-0.2c-0.2-0.2-0.2-0.4-0.2-0.6v-1.4c0-0.1,0-0.1-0.1-0.2c-0.1-0.1-0.1-0.1-0.2-0.1
		s-0.1,0-0.2,0.1c-0.1,0.1-0.1,0.1-0.1,0.2v1.8c0,0.3,0.1,0.5,0.2,0.6c0.1,0.2,0.3,0.3,0.5,0.4l0.7,0.2c0.2,0.1,0.4,0.2,0.6,0.4
		c0.1,0.2,0.2,0.4,0.2,0.6v0.6h-0.6V45.9z M11.1,43.5c0.1,0,0.1,0,0.2-0.1c0.1-0.1,0.1-0.1,0.1-0.2v-1.4c0-0.1,0-0.1-0.1-0.2
		c-0.1-0.1-0.1-0.1-0.2-0.1c-0.1,0-0.1,0-0.2,0.1c-0.1,0.1-0.1,0.1-0.1,0.2v1.4c0,0.1,0,0.1,0.1,0.2C11,43.5,11.1,43.5,11.1,43.5
		 M12.6,41.9c0-0.2,0.1-0.5,0.3-0.6c0.2-0.2,0.4-0.2,0.6-0.2c0.2,0,0.4,0.1,0.6,0.3c0.2,0.2,0.3,0.4,0.3,0.6v4.6h-0.6v-4.6
		c0-0.1,0-0.1-0.1-0.2c-0.1-0.1-0.1-0.1-0.2-0.1c-0.1,0-0.1,0-0.2,0.1c-0.1,0.1-0.1,0.1-0.1,0.2v4.6h-0.6V41.9z"/>
	<path fill-rule="evenodd" clip-rule="evenodd" fill="#FFFFFF" d="M14.6,1.3C16.8,0.6,18.7,0.1,22,0l1.5,0C39,1.4,45.4,15,46,21.3
		l0.1,0.8c0.1,1.7,0.1,2,0,3.5c-0.2,1.8-0.3,2.4-0.8,4.6c-0.7,2.1-0.7,2.3-1.4,3.8C50.2,18.4,30.3-5.3,12.3,2.3v0
		C13,1.9,13.7,1.6,14.6,1.3"/>
	<path fill-rule="evenodd" clip-rule="evenodd" fill="#FFFFFF" d="M0.5,23.2c0.3-3.4,2.5-6.3,5.6-7.5c9.8-3.8,20.6,6.1,21.5,14.4
		h-5.8C20.2,21.5,7.9,14,0.5,23.2"/>
	<path fill-rule="evenodd" clip-rule="evenodd" fill="#FFFFFF" d="M1.4,13.6C8.4-2.9,31.2,2.5,39.1,22.5c3.3,8.3,2.6,15.7-1.8,19.3
		c-0.7,0.5-1.6,1.2-2.4,1.7c-2,1.1-2.5,1.4-4.7,2.2c-2.4,0.7-2.4,0.7-3.6,0.9c13.6-3.2,7.8-25.4-5.8-34.1C14,8,4.7,7.5,0.5,16.7
		C0.8,15.8,1.1,14.5,1.4,13.6"/>
</g>
</svg>
