<?xml version="1.0" encoding="utf-8"?>
<!-- Generator: Adobe Illustrator 21.0.0, SVG Export Plug-In . SVG Version: 6.00 Build 0)  -->
<svg version="1.1" id="Layer_1" xmlns="http://www.w3.org/2000/svg" xmlns:xlink="http://www.w3.org/1999/xlink" x="0px" y="0px"
	 viewBox="0 0 110.1 257.2" style="enable-background:new 0 0 110.1 257.2;" xml:space="preserve">
<style type="text/css">
	.st0{fill:#FFFFFF;}
</style>
<g>
	<g>
		<path class="st0" d="M16.3,91.1h31.9c-0.6,1.8-0.9,3.9-0.9,6.2c0,10.4,5.5,15.3,16.2,15.3h30.3c10.6,0,16.2-4.9,16.2-15.3
			c0-10.2-5.5-15.2-16.2-15.2H68.1h-4.7H16.2C5.6,82.1,0,87,0,97.3v15.3h8.6V97.3C8.8,93.2,11.3,91.1,16.3,91.1z M93.8,91.1
			c4.8,0,7.3,2.1,7.3,6.2c0,4.2-2.4,6.4-7.3,6.4H63.4c-5,0-7.5-2.1-7.5-6.4c0-4.1,2.5-6.2,7.5-6.2h4.5H93.8z"/>
		<path class="st0" d="M110,15.1C110,5,104.6,0,93.8,0H0.1v8.9h93.7c5,0,7.5,2.1,7.5,6.2s-2.5,6.2-7.5,6.2H0.1v9h93.7
			C104.6,30.3,110,25.3,110,15.1z"/>
		<path class="st0" d="M110,138.5c0-10.1-5.4-15.2-16.2-15.2H0.1v8.9h93.7c5,0,7.5,2.1,7.5,6.2c0,4.1-2.5,6.2-7.5,6.2H0.1v8.9h93.7
			C104.6,153.7,110,148.6,110,138.5z"/>
		<path class="st0" d="M110.1,242.1c0-4.6-1.2-8.2-3.4-10.7c2.2-2.5,3.4-6.1,3.4-10.6c0-10.1-5.4-15.2-16.2-15.2H0.1v8.9h93.7
			c5,0,7.5,2.1,7.5,6.2c0,3.9-2.2,6-6.6,6.2c-0.3,0-0.6,0-0.9,0H44.4v0.1h-0.1v8.9h49.5c0.3,0,0.7,0,1,0c4.4,0.3,6.6,2.4,6.6,6.2
			c0,4.1-2.5,6.2-7.5,6.2H0.2v8.9h93.7C104.6,257.2,110.1,252.2,110.1,242.1z"/>
		<path class="st0" d="M110,41h-8.8h-50H21.5h-5.2C5.7,41,0.1,45.9,0.1,56.2c0,10.4,5.5,15.3,16.2,15.3h35
			c10.6,0,16.2-4.9,16.2-15.3c0-2.4-0.3-4.4-0.9-6.2h34.6v21.6h8.8V49.9V41z M58.5,56.2c0,4.2-2.4,6.4-7.3,6.4h-35
			c-5,0-7.5-2.1-7.5-6.4c0-4.1,2.5-6.2,7.5-6.2h4h31C56.1,49.9,58.5,52.1,58.5,56.2z"/>
		<path class="st0" d="M82.3,187.4c0.1,0.1,0.3,0.3,0.5,0.4c2.4,2.2,6.1,2.2,9.3,2.2h7.6c6.6,0,10.2-5,10.2-11.4
			c0-6.6-3.2-11.2-10.2-11.2H96v8.2h2.5c2.4,0,3.1,2.1,3.1,2.9c0,1.2-0.7,3-2.5,3h-9c-4.1,0-5.6-2.9-6.4-5.2c0-0.1-0.1-0.1-0.1-0.2
			c-1.2-7.8-6.6-11.6-15.9-11.6H16.3c-10.6,0-16.2,4.9-16.2,15.2c0,10.4,5.5,15.3,16.2,15.3h51.4C75.1,194.8,80,192.4,82.3,187.4z
			 M16.3,185.9c-5,0-7.5-2.1-7.5-6.4c0-4.1,2.5-6.2,7.5-6.2h51.4c4.8,0,7.3,2.1,7.3,6.2c0,4.2-2.4,6.4-7.3,6.4H16.3z"/>
	</g>
</g>
</svg>
