<?xml version="1.0" encoding="utf-8"?>
<!-- Generator: Adobe Illustrator 17.1.0, SVG Export Plug-In . SVG Version: 6.00 Build 0)  -->
<!DOCTYPE svg PUBLIC "-//W3C//DTD SVG 1.1//EN" "http://www.w3.org/Graphics/SVG/1.1/DTD/svg11.dtd">
<svg version="1.1" id="Layer_1" xmlns="http://www.w3.org/2000/svg" xmlns:xlink="http://www.w3.org/1999/xlink" x="0px" y="0px"
	 viewBox="0 0 569.3 230.2" enable-background="new 0 0 569.3 230.2" xml:space="preserve">
<path fill="none" stroke="#9E7978" stroke-miterlimit="10" d="M0.5,230c11.4-24,4.8-9.5,16.5-33.4c2.6-5.4,5.6-10.4,10.3-14.2
	c6.3-5.2,10.4-12,13.8-19.2c1.7-3.5,4.2-5.4,8.2-4.6c8.2,1.7,16.3,3.6,24.5,5c7.8,1.4,15.7,1.5,22.7-2.7c5.2-3.1,10.2-5.7,16.5-4.9
	c2.5,0.3,3.5-0.7,3.9-3.4c1.1-7,4.3-14.1,3.6-20.9c-1.2-11.5,1.3-21.6,6-31.7c1.8-4,2.5-8.6,3.3-13.1c0.2-1.1-0.8-2.8-1.8-3.5
	c-2.8-2.2-5.8-4.1-9.3-6.4c7-10.2,13.9-20.2,21.2-30.7c26,20.8,50.6,42.5,75.1,65.9c8.5-10.1,17.2-19.7,25-29.9
	c3.1-4,4.4-9.4,6.1-14.3c1-3,2.8-4.3,5.6-5.1c17.8-5.1,35.5-10.4,53.2-15.7c1.5-0.5,3.1-1.3,4.2-2.4c18.9-17.9,41.1-31,63.5-44
	c0.2-0.1,0.5-0.2,1.3-0.4c5.5,7.1,10.9,14.5,16.8,21.5c21.4,25.1,42.9,50.1,64.4,75.1c20.7,24,41.6,48,62.4,72
	c17.2,19.8,34.6,39.5,51.4,59.7"/>
</svg>
